<svg xmlns="http://www.w3.org/2000/svg" xmlns:xlink="http://www.w3.org/1999/xlink" width="533" height="533" viewBox="0 0 400 400" version="1.1" style="">

<g class="currentLayer" style=""><title>Layer 1</title>
<path style="stroke: none; fill-rule: nonzero; fill-opacity: 1;" d="M 400 200 C 400 310.457031 310.457031 400 200 400 C 89.542969 400 0 310.457031 0 200 C 0 89.542969 89.542969 0 200 0 C 310.457031 0 400 89.542969 400 200 Z M 400 200 " id="svg_1" class="" fill-opacity="1" fill="#a3544a"/>
<path style="stroke: none; fill-rule: nonzero; fill-opacity: 1;" d="M 400 200 C 400 187.097656 398.765625 174.484375 396.429688 162.261719 L 301.496094 67.328125 L 73.753906 163.652344 L 64.925781 292.902344 L 169.746094 397.722656 C 179.613281 399.222656 189.714844 400 200 400 C 310.457031 400 400 310.457031 400 200 Z M 400 200 " id="svg_2" class="" fill-opacity="1" fill="#6d3832"/>
<path style="stroke: none; fill-rule: nonzero; fill-opacity: 1;" d="M123.40812969207764,304.296875 L93.67375469207764,304.296875 C71.51359869207764,304.296875 53.48625469207764,286.269531 53.48625469207764,264.109375 L53.48625469207764,171.046875 C53.48625469207764,148.886719 71.51359869207764,130.859375 93.67375469207764,130.859375 L123.40812969207764,130.859375 L123.40812969207764,166.015625 L93.67375469207764,166.015625 C90.89641069207764,166.015625 88.64250469207764,168.269531 88.64250469207764,171.046875 L88.64250469207764,264.109375 C88.64250469207764,266.886719 90.89641069207764,269.140625 93.67375469207764,269.140625 L123.40812969207764,269.140625 zM123.40812969207764,304.296875 " id="svg_3" class="" fill-opacity="1" fill="#eaa627"/>
<path style="stroke: none; fill-rule: nonzero; fill-opacity: 1;" d="M 108.621094 115.855469 L 291.378906 115.855469 L 291.378906 334.144531 L 108.621094 334.144531 Z M 108.621094 115.855469 " id="svg_4" class="" fill-opacity="1" fill="#ecb956"/>
<path style="stroke: none; fill-rule: nonzero; fill-opacity: 1;" d="M 199.925781 115.855469 L 291.378906 115.855469 L 291.378906 334.144531 L 199.925781 334.144531 Z M 199.925781 115.855469 " id="svg_5" class="" fill-opacity="1" fill="#eaae3f"/>
<path style="stroke: none; fill-rule: nonzero; fill-opacity: 1;" d="M 149.65625 304.957031 C 140.546875 304.957031 133.160156 297.566406 133.160156 288.457031 L 133.160156 161.542969 C 133.160156 152.433594 140.546875 145.042969 149.65625 145.042969 C 158.769531 145.042969 166.15625 152.433594 166.15625 161.542969 L 166.15625 288.457031 C 166.15625 297.566406 158.769531 304.957031 149.65625 304.957031 Z M 149.65625 304.957031 " id="svg_6" class="" fill-opacity="1" fill="#eaa627"/>
<path style="stroke: none; fill-rule: nonzero; fill-opacity: 1;" d="M250.33984,304.95703C241.23047,304.95703 233.84375,297.56641 233.84375,288.45703L233.84375,161.54297C233.84375,152.43359 241.23047,145.04297 250.33984,145.04297C259.45313,145.04297 266.83984,152.43359 266.83984,161.54297L266.83984,288.45703C266.83984,297.56641 259.45313,304.95703 250.33984,304.95703zM250.33984,304.95703" id="svg_7" class="" fill-opacity="1" fill="#ea9800"/>
<path style="stroke: none; fill-rule: nonzero; fill-opacity: 1;" d="M 200 304.957031 C 190.886719 304.957031 183.503906 297.566406 183.503906 288.457031 L 183.503906 161.542969 C 183.503906 152.433594 190.886719 145.042969 200 145.042969 C 209.113281 145.042969 216.496094 152.433594 216.496094 161.542969 L 216.496094 288.457031 C 216.496094 297.566406 209.113281 304.957031 200 304.957031 Z M 200 304.957031 " id="svg_8" class="" fill-opacity="1" fill="#eaa627"/>
<path style="stroke: none; fill-rule: nonzero; fill-opacity: 1;" d="M 200 145.042969 C 199.976562 145.042969 199.953125 145.050781 199.925781 145.050781 L 199.925781 304.953125 C 199.953125 304.953125 199.976562 304.957031 200 304.957031 C 209.113281 304.957031 216.496094 297.566406 216.496094 288.457031 L 216.496094 161.542969 C 216.496094 152.433594 209.113281 145.042969 200 145.042969 Z M 200 145.042969 " id="svg_9" class="" fill-opacity="1" fill="#e89600"/>
<path style=" stroke:none;fill-rule:nonzero;fill:rgb(100%,100%,100%);fill-opacity:1;" d="M 260.234375 48.453125 C 256.339844 48.453125 252.550781 48.855469 248.90625 49.59375 C 238.457031 35.414062 220.390625 26.03125 199.851562 26.03125 C 179.453125 26.03125 161.5 35.273438 151.011719 49.292969 C 147.859375 48.746094 144.609375 48.453125 141.277344 48.453125 C 113.328125 48.453125 90.675781 68.53125 90.675781 93.296875 C 90.675781 118.0625 113.328125 138.140625 141.277344 138.140625 C 146.621094 138.140625 151.765625 137.394531 156.601562 136.03125 C 167.453125 144.136719 182.851562 149.207031 199.945312 149.207031 C 217.277344 149.207031 232.878906 143.996094 243.75 135.695312 C 248.917969 137.269531 254.460938 138.140625 260.234375 138.140625 C 288.183594 138.140625 310.839844 118.0625 310.839844 93.296875 C 310.839844 68.53125 288.183594 48.453125 260.234375 48.453125 Z M 260.234375 48.453125 " id="svg_10" class=""/>
<path style="stroke: none; fill-rule: nonzero; fill-opacity: 1;" d="M 260.234375 48.453125 C 256.339844 48.453125 252.550781 48.855469 248.90625 49.59375 C 238.46875 35.429688 220.4375 26.054688 199.925781 26.03125 L 199.925781 149.207031 L 199.945312 149.207031 C 217.277344 149.207031 232.878906 143.996094 243.75 135.691406 C 248.917969 137.269531 254.460938 138.136719 260.234375 138.136719 C 288.183594 138.136719 310.839844 118.058594 310.839844 93.296875 C 310.839844 68.53125 288.183594 48.453125 260.234375 48.453125 Z M 260.234375 48.453125 " id="svg_11" class="" fill-opacity="1" fill="#e8ded0"/>
</g></svg>