<?xml version="1.0" standalone="no"?>
<!DOCTYPE svg PUBLIC "-//W3C//DTD SVG 20010904//EN"
 "http://www.w3.org/TR/2001/REC-SVG-20010904/DTD/svg10.dtd">
<svg version="1.0" xmlns="http://www.w3.org/2000/svg"
 width="1280.000000pt" height="1280.000000pt" viewBox="0 0 1280.000000 1280.000000"
 preserveAspectRatio="xMidYMid meet">
<metadata>
Created by potrace 1.15, written by Peter Selinger 2001-2017
</metadata>
<g transform="translate(0.000000,1280.000000) scale(0.100000,-0.100000)"
fill="#000000" stroke="none">
<path d="M6000 12793 c-706 -41 -1438 -214 -2105 -496 -1125 -476 -2103 -1281
-2797 -2302 -614 -903 -969 -1900 -1080 -3035 -21 -214 -18 -959 5 -1175 88
-837 302 -1573 662 -2280 709 -1392 1882 -2467 3327 -3051 552 -223 1129 -363
1773 -431 214 -22 974 -26 1175 -5 623 64 1131 177 1645 367 903 334 1671 828
2347 1511 485 491 851 996 1163 1609 361 708 573 1439 662 2280 26 245 26 985
0 1230 -106 1001 -395 1874 -895 2700 -378 624 -888 1209 -1452 1665 -1033
833 -2265 1317 -3595 1410 -127 9 -700 11 -835 3z m795 -814 c500 -33 1023
-143 1496 -314 242 -88 357 -138 604 -260 559 -278 1042 -629 1497 -1091 176
-180 233 -244 389 -439 665 -834 1066 -1817 1186 -2905 26 -238 26 -903 0
-1140 -32 -290 -86 -583 -153 -840 -497 -1910 -1984 -3431 -3879 -3970 -517
-146 -984 -211 -1535 -211 -358 0 -617 21 -940 76 -1729 293 -3229 1393 -4036
2960 -318 617 -511 1266 -591 1985 -26 237 -26 902 0 1140 22 200 68 477 109
660 332 1481 1274 2782 2583 3568 989 593 2097 858 3270 781z"/>
<path d="M4796 9930 c-209 -36 -364 -254 -328 -459 26 -144 -79 -31 1506
-1619 l1451 -1452 -1441 -1443 c-932 -932 -1451 -1458 -1468 -1488 -40 -70
-59 -177 -47 -258 35 -221 240 -376 455 -343 148 23 18 -98 1744 1626 865 864
1586 1591 1602 1616 16 25 36 71 44 102 17 64 20 288 5 356 -24 112 29 56
-1618 1705 -861 862 -1587 1581 -1613 1598 -81 52 -196 75 -292 59z"/>
</g>
</svg>
